<svg xmlns="http://www.w3.org/2000/svg" xmlns:xlink="http://www.w3.org/1999/xlink" width="500" zoomAndPan="magnify" viewBox="0 0 375 374.999991" height="500" preserveAspectRatio="xMidYMid meet" version="1.2"><defs><clipPath id="7a53e896a4"><path d="M 53.714844 57 L 321 57 L 321 325.003906 L 53.714844 325.003906 Z M 53.714844 57 "/></clipPath><clipPath id="c182a758bf"><path d="M 104 49.753906 L 128 49.753906 L 128 77 L 104 77 Z M 104 49.753906 "/></clipPath><clipPath id="49d92b6caa"><path d="M 129 49.753906 L 153 49.753906 L 153 77 L 129 77 Z M 129 49.753906 "/></clipPath><clipPath id="80e0eba4e5"><path d="M 74.351562 84.050781 L 300.648438 84.050781 L 300.648438 310.34375 L 74.351562 310.34375 Z M 74.351562 84.050781 "/></clipPath></defs><g id="eb948b6f72"><g clip-rule="nonzero" clip-path="url(#7a53e896a4)"><path style=" stroke:none;fill-rule:nonzero;fill:#304430;fill-opacity:1;" d="M 303.363281 57.839844 L 292.417969 57.839844 L 292.417969 64.707031 L 303.363281 64.707031 C 309.285156 64.707031 314.105469 69.523438 314.105469 75.445312 L 314.105469 307.410156 C 314.105469 313.332031 309.285156 318.152344 303.363281 318.152344 L 71.402344 318.152344 C 65.480469 318.152344 60.660156 313.332031 60.660156 307.410156 L 60.660156 75.445312 C 60.660156 69.523438 65.480469 64.703125 71.402344 64.703125 L 82.347656 64.703125 L 82.347656 57.839844 L 71.402344 57.839844 C 61.695312 57.839844 53.796875 65.734375 53.796875 75.445312 L 53.796875 307.40625 C 53.796875 317.113281 61.691406 325.015625 71.402344 325.015625 L 303.363281 325.015625 C 313.070312 325.015625 320.972656 317.117188 320.972656 307.40625 L 320.972656 75.445312 C 320.972656 65.738281 313.074219 57.839844 303.363281 57.839844 Z M 303.363281 57.839844 "/></g><g clip-rule="nonzero" clip-path="url(#c182a758bf)"><path style=" stroke:none;fill-rule:nonzero;fill:#304430;fill-opacity:1;" d="M 116.746094 70.671875 C 114.136719 70.671875 112.523438 69.613281 111.894531 67.496094 L 104.40625 68.84375 C 105.90625 74.179688 109.859375 76.851562 116.261719 76.851562 C 119.765625 76.851562 122.597656 76.027344 124.75 74.375 C 126.90625 72.726562 127.984375 70.570312 127.984375 67.910156 C 127.984375 66.230469 127.542969 64.769531 126.65625 63.53125 C 125.773438 62.289062 124.667969 61.414062 123.347656 60.902344 C 122.023438 60.390625 119.789062 59.800781 116.644531 59.136719 C 115.503906 58.894531 114.734375 58.640625 114.335938 58.371094 C 113.9375 58.101562 113.738281 57.722656 113.738281 57.234375 C 113.738281 56.144531 114.617188 55.597656 116.375 55.597656 C 118.492188 55.597656 119.898438 56.476562 120.589844 58.238281 L 127.269531 56.214844 C 125.550781 51.917969 122.015625 49.769531 116.664062 49.769531 C 113.136719 49.769531 110.429688 50.589844 108.550781 52.234375 C 106.667969 53.875 105.730469 55.9375 105.730469 58.414062 C 105.730469 60.339844 106.382812 62.015625 107.691406 63.4375 C 109 64.863281 111.960938 66.015625 116.570312 66.898438 C 117.773438 67.144531 118.613281 67.421875 119.082031 67.738281 C 119.550781 68.050781 119.785156 68.492188 119.785156 69.054688 C 119.785156 70.132812 118.769531 70.671875 116.742188 70.671875 Z M 116.746094 70.671875 "/></g><g clip-rule="nonzero" clip-path="url(#49d92b6caa)"><path style=" stroke:none;fill-rule:nonzero;fill:#304430;fill-opacity:1;" d="M 141.828125 76.847656 C 144.792969 76.847656 147.292969 75.988281 149.328125 74.269531 C 151.359375 72.550781 152.550781 70.082031 152.898438 66.859375 L 145.527344 66.414062 C 145.269531 69.316406 144.074219 70.765625 141.945312 70.765625 C 140.75 70.765625 139.824219 70.253906 139.164062 69.226562 C 138.5 68.199219 138.171875 66.253906 138.171875 63.390625 C 138.171875 58.285156 139.441406 55.730469 141.984375 55.730469 C 142.894531 55.730469 143.6875 56.121094 144.363281 56.90625 C 145.035156 57.6875 145.371094 58.957031 145.371094 60.71875 L 152.898438 60.3125 C 152.652344 57.128906 151.597656 54.574219 149.730469 52.652344 C 147.863281 50.726562 145.191406 49.765625 141.714844 49.765625 C 137.992188 49.765625 135.09375 51.027344 133.011719 53.554688 C 130.933594 56.082031 129.894531 59.410156 129.894531 63.527344 C 129.894531 67.644531 130.988281 70.945312 133.1875 73.308594 C 135.378906 75.667969 138.261719 76.847656 141.828125 76.847656 Z M 141.828125 76.847656 "/></g><path style=" stroke:none;fill-rule:nonzero;fill:#304430;fill-opacity:1;" d="M 161.363281 71.265625 L 168.402344 71.265625 L 169.886719 76.445312 L 178.117188 76.445312 L 169.875 50.167969 L 161.347656 50.167969 L 153.234375 76.445312 L 159.785156 76.445312 L 161.359375 71.265625 Z M 164.863281 57.90625 L 166.988281 65.53125 L 162.734375 65.53125 Z M 164.863281 57.90625 "/><path style=" stroke:none;fill-rule:nonzero;fill:#304430;fill-opacity:1;" d="M 187.085938 63.722656 C 187.085938 62.542969 186.871094 61.105469 186.449219 59.410156 C 187.386719 61.539062 188.316406 63.347656 189.242188 64.835938 L 196.4375 76.445312 L 203.003906 76.445312 L 203.003906 50.167969 L 196.4375 50.167969 L 196.4375 57.945312 C 196.4375 60.292969 196.644531 62.589844 197.054688 64.839844 C 196.425781 63.386719 195.503906 61.707031 194.285156 59.796875 L 188.160156 50.171875 L 180.539062 50.171875 L 180.539062 76.449219 L 187.082031 76.449219 L 187.082031 63.722656 Z M 187.085938 63.722656 "/><path style=" stroke:none;fill-rule:nonzero;fill:#304430;fill-opacity:1;" d="M 223.488281 57.65625 L 228.539062 76.445312 L 233.660156 76.445312 L 238.523438 57.65625 L 238.523438 76.445312 L 246.011719 76.445312 L 246.011719 50.167969 L 235.433594 50.167969 L 231.792969 64.125 L 227.980469 50.167969 L 217.441406 50.167969 L 217.441406 76.445312 L 223.488281 76.445312 Z M 223.488281 57.65625 "/><path style=" stroke:none;fill-rule:nonzero;fill:#304430;fill-opacity:1;" d="M 270.363281 70.171875 L 258.503906 70.171875 L 258.503906 65.878906 L 268.089844 65.878906 L 268.089844 60.042969 L 258.503906 60.042969 L 258.503906 56.234375 L 270.363281 56.234375 L 270.363281 50.167969 L 250.59375 50.167969 L 250.59375 76.445312 L 270.363281 76.445312 Z M 270.363281 70.171875 "/><g clip-rule="nonzero" clip-path="url(#80e0eba4e5)"><path style=" stroke:none;fill-rule:nonzero;fill:#ffffff;fill-opacity:1;" d="M 74.351562 84.050781 L 300.648438 84.050781 L 300.648438 310.34375 L 74.351562 310.34375 Z M 74.351562 84.050781 "/></g><path style="fill-rule:nonzero;fill:#ffffff;fill-opacity:1;stroke-width:1;stroke-linecap:butt;stroke-linejoin:miter;stroke:#c2a45f;stroke-opacity:1;stroke-miterlimit:4;" d="M 2.000015 2.499852 L 9.000149 2.499852 M 11.999837 2.499852 L 14.999956 2.499852 M 15.999852 2.499852 L 22.999986 2.499852 M 2.000015 3.500179 L 2.999911 3.500179 M 7.999822 3.500179 L 9.000149 3.500179 M 10.999941 3.500179 L 11.999837 3.500179 M 13.000164 3.500179 L 14.00006 3.500179 M 15.999852 3.500179 L 17.000179 3.500179 M 22.00009 3.500179 L 22.999986 3.500179 M 2.000015 4.500075 L 2.999911 4.500075 M 3.999807 4.500075 L 6.999926 4.500075 M 7.999822 4.500075 L 9.000149 4.500075 M 10.000045 4.500075 L 11.999837 4.500075 M 13.000164 4.500075 L 14.00006 4.500075 M 15.999852 4.500075 L 17.000179 4.500075 M 18.000075 4.500075 L 21.000194 4.500075 M 22.00009 4.500075 L 22.999986 4.500075 M 2.000015 5.499971 L 2.999911 5.499971 M 3.999807 5.499971 L 6.999926 5.499971 M 7.999822 5.499971 L 9.000149 5.499971 M 10.000045 5.499971 L 13.000164 5.499971 M 14.00006 5.499971 L 14.999956 5.499971 M 15.999852 5.499971 L 17.000179 5.499971 M 18.000075 5.499971 L 21.000194 5.499971 M 22.00009 5.499971 L 22.999986 5.499971 M 2.000015 6.499867 L 2.999911 6.499867 M 3.999807 6.499867 L 6.999926 6.499867 M 7.999822 6.499867 L 9.000149 6.499867 M 10.000045 6.499867 L 10.999941 6.499867 M 14.00006 6.499867 L 14.999956 6.499867 M 15.999852 6.499867 L 17.000179 6.499867 M 18.000075 6.499867 L 21.000194 6.499867 M 22.00009 6.499867 L 22.999986 6.499867 M 2.000015 7.500194 L 2.999911 7.500194 M 7.999822 7.500194 L 9.000149 7.500194 M 10.000045 7.500194 L 14.00006 7.500194 M 15.999852 7.500194 L 17.000179 7.500194 M 22.00009 7.500194 L 22.999986 7.500194 M 2.000015 8.50009 L 9.000149 8.50009 M 10.000045 8.50009 L 10.999941 8.50009 M 11.999837 8.50009 L 13.000164 8.50009 M 14.00006 8.50009 L 14.999956 8.50009 M 15.999852 8.50009 L 22.999986 8.50009 M 10.000045 9.499986 L 11.999837 9.499986 M 2.000015 10.499882 L 2.999911 10.499882 M 3.999807 10.499882 L 9.000149 10.499882 M 10.999941 10.499882 L 14.00006 10.499882 M 15.999852 10.499882 L 21.000194 10.499882 M 2.999911 11.500209 L 5.000134 11.500209 M 6.00003 11.500209 L 7.999822 11.500209 M 9.000149 11.500209 L 10.000045 11.500209 M 13.000164 11.500209 L 14.999956 11.500209 M 18.000075 11.500209 L 21.000194 11.500209 M 22.00009 11.500209 L 22.999986 11.500209 M 2.000015 12.500105 L 3.999807 12.500105 M 5.000134 12.500105 L 6.00003 12.500105 M 6.999926 12.500105 L 10.000045 12.500105 M 10.999941 12.500105 L 11.999837 12.500105 M 14.00006 12.500105 L 22.00009 12.500105 M 5.000134 13.500001 L 6.999926 13.500001 M 9.000149 13.500001 L 11.999837 13.500001 M 13.000164 13.500001 L 14.999956 13.500001 M 15.999852 13.500001 L 18.000075 13.500001 M 18.999971 13.500001 L 21.000194 13.500001 M 2.000015 14.499897 L 6.00003 14.499897 M 7.999822 14.499897 L 9.000149 14.499897 M 11.999837 14.499897 L 13.000164 14.499897 M 14.00006 14.499897 L 15.999852 14.499897 M 21.000194 14.499897 L 22.00009 14.499897 M 10.000045 15.499792 L 10.999941 15.499792 M 11.999837 15.499792 L 13.000164 15.499792 M 14.00006 15.499792 L 14.999956 15.499792 M 15.999852 15.499792 L 17.000179 15.499792 M 18.999971 15.499792 L 19.999867 15.499792 M 21.000194 15.499792 L 22.999986 15.499792 M 2.000015 16.50012 L 9.000149 16.50012 M 10.999941 16.50012 L 11.999837 16.50012 M 13.000164 16.50012 L 14.00006 16.50012 M 17.000179 16.50012 L 18.000075 16.50012 M 19.999867 16.50012 L 22.00009 16.50012 M 2.000015 17.500016 L 2.999911 17.500016 M 7.999822 17.500016 L 9.000149 17.500016 M 10.000045 17.500016 L 10.999941 17.500016 M 14.999956 17.500016 L 15.999852 17.500016 M 17.000179 17.500016 L 18.000075 17.500016 M 19.999867 17.500016 L 21.000194 17.500016 M 2.000015 18.499912 L 2.999911 18.499912 M 3.999807 18.499912 L 6.999926 18.499912 M 7.999822 18.499912 L 9.000149 18.499912 M 10.000045 18.499912 L 10.999941 18.499912 M 13.000164 18.499912 L 14.00006 18.499912 M 18.000075 18.499912 L 19.999867 18.499912 M 21.000194 18.499912 L 22.00009 18.499912 M 2.000015 19.499807 L 2.999911 19.499807 M 3.999807 19.499807 L 6.999926 19.499807 M 7.999822 19.499807 L 9.000149 19.499807 M 10.000045 19.499807 L 10.999941 19.499807 M 14.00006 19.499807 L 15.999852 19.499807 M 17.000179 19.499807 L 18.999971 19.499807 M 2.000015 20.500135 L 2.999911 20.500135 M 3.999807 20.500135 L 6.999926 20.500135 M 7.999822 20.500135 L 9.000149 20.500135 M 10.000045 20.500135 L 10.999941 20.500135 M 11.999837 20.500135 L 13.000164 20.500135 M 14.00006 20.500135 L 14.999956 20.500135 M 17.000179 20.500135 L 18.000075 20.500135 M 2.000015 21.500031 L 2.999911 21.500031 M 7.999822 21.500031 L 9.000149 21.500031 M 10.999941 21.500031 L 11.999837 21.500031 M 14.00006 21.500031 L 18.000075 21.500031 M 19.999867 21.500031 L 21.000194 21.500031 M 2.000015 22.499927 L 9.000149 22.499927 M 10.000045 22.499927 L 13.000164 22.499927 M 14.00006 22.499927 L 14.999956 22.499927 M 17.000179 22.499927 L 18.000075 22.499927 M 18.999971 22.499927 L 22.00009 22.499927 " transform="matrix(9.051724,0,0,9.051724,74.353447,84.051719)"/></g></svg>