<svg xmlns="http://www.w3.org/2000/svg" xmlns:xlink="http://www.w3.org/1999/xlink" width="50" zoomAndPan="magnify" viewBox="0 0 37.5 37.499999" height="50" preserveAspectRatio="xMidYMid meet" version="1.2"><defs><clipPath id="4717da5940"><path d="M 3.835938 6.128906 L 33 6.128906 L 33 20 L 3.835938 20 Z M 3.835938 6.128906 "/></clipPath><clipPath id="3c80b5a0cd"><path d="M 3.835938 16 L 33 16 L 33 30.554688 L 3.835938 30.554688 Z M 3.835938 16 "/></clipPath></defs><g id="f2339f6229"><g clip-rule="nonzero" clip-path="url(#4717da5940)"><path style=" stroke:none;fill-rule:nonzero;fill:#927545;fill-opacity:1;" d="M 25.546875 13.019531 L 32.789062 6.199219 L 26.222656 6.199219 L 25.546875 6.835938 L 18.308594 13.65625 L 11.066406 6.835938 L 10.394531 6.199219 L 3.828125 6.199219 L 11.066406 13.019531 L 18.308594 19.839844 Z M 25.546875 13.019531 "/></g><g clip-rule="nonzero" clip-path="url(#3c80b5a0cd)"><path style=" stroke:none;fill-rule:nonzero;fill:#927545;fill-opacity:1;" d="M 25.546875 23.691406 L 32.789062 16.871094 L 26.222656 16.871094 L 25.546875 17.507812 L 18.308594 24.328125 L 11.066406 17.507812 L 10.394531 16.871094 L 3.828125 16.871094 L 11.066406 23.691406 L 18.308594 30.511719 Z M 25.546875 23.691406 "/></g></g></svg>