<svg xmlns="http://www.w3.org/2000/svg" xmlns:xlink="http://www.w3.org/1999/xlink" width="500" zoomAndPan="magnify" viewBox="0 0 375 374.999991" height="500" preserveAspectRatio="xMidYMid meet" version="1.2"><defs><clipPath id="8f32088e39"><path d="M 53.714844 57 L 321 57 L 321 325.003906 L 53.714844 325.003906 Z M 53.714844 57 "/></clipPath><clipPath id="c783c6af07"><path d="M 104 49.753906 L 128 49.753906 L 128 77 L 104 77 Z M 104 49.753906 "/></clipPath><clipPath id="9bc8c50865"><path d="M 129 49.753906 L 153 49.753906 L 153 77 L 129 77 Z M 129 49.753906 "/></clipPath><clipPath id="370f6b5bdc"><path d="M 74.351562 84.050781 L 300.648438 84.050781 L 300.648438 310.34375 L 74.351562 310.34375 Z M 74.351562 84.050781 "/></clipPath></defs><g id="07a65d9cf0"><g clip-rule="nonzero" clip-path="url(#8f32088e39)"><path style=" stroke:none;fill-rule:nonzero;fill:#304430;fill-opacity:1;" d="M 303.363281 57.839844 L 292.417969 57.839844 L 292.417969 64.707031 L 303.363281 64.707031 C 309.285156 64.707031 314.105469 69.523438 314.105469 75.445312 L 314.105469 307.410156 C 314.105469 313.332031 309.285156 318.152344 303.363281 318.152344 L 71.402344 318.152344 C 65.480469 318.152344 60.660156 313.332031 60.660156 307.410156 L 60.660156 75.445312 C 60.660156 69.523438 65.480469 64.703125 71.402344 64.703125 L 82.347656 64.703125 L 82.347656 57.839844 L 71.402344 57.839844 C 61.695312 57.839844 53.796875 65.734375 53.796875 75.445312 L 53.796875 307.40625 C 53.796875 317.113281 61.691406 325.015625 71.402344 325.015625 L 303.363281 325.015625 C 313.070312 325.015625 320.972656 317.117188 320.972656 307.40625 L 320.972656 75.445312 C 320.972656 65.738281 313.074219 57.839844 303.363281 57.839844 Z M 303.363281 57.839844 "/></g><g clip-rule="nonzero" clip-path="url(#c783c6af07)"><path style=" stroke:none;fill-rule:nonzero;fill:#304430;fill-opacity:1;" d="M 116.746094 70.671875 C 114.136719 70.671875 112.523438 69.613281 111.894531 67.496094 L 104.40625 68.84375 C 105.90625 74.179688 109.859375 76.851562 116.261719 76.851562 C 119.765625 76.851562 122.597656 76.027344 124.75 74.375 C 126.90625 72.726562 127.984375 70.570312 127.984375 67.910156 C 127.984375 66.230469 127.542969 64.769531 126.65625 63.53125 C 125.773438 62.289062 124.667969 61.414062 123.347656 60.902344 C 122.023438 60.390625 119.789062 59.800781 116.644531 59.136719 C 115.503906 58.894531 114.734375 58.640625 114.335938 58.371094 C 113.9375 58.101562 113.738281 57.722656 113.738281 57.234375 C 113.738281 56.144531 114.617188 55.597656 116.375 55.597656 C 118.492188 55.597656 119.898438 56.476562 120.589844 58.238281 L 127.269531 56.214844 C 125.550781 51.917969 122.015625 49.769531 116.664062 49.769531 C 113.136719 49.769531 110.429688 50.589844 108.550781 52.234375 C 106.667969 53.875 105.730469 55.9375 105.730469 58.414062 C 105.730469 60.339844 106.382812 62.015625 107.691406 63.4375 C 109 64.863281 111.960938 66.015625 116.570312 66.898438 C 117.773438 67.144531 118.613281 67.421875 119.082031 67.738281 C 119.550781 68.050781 119.785156 68.492188 119.785156 69.054688 C 119.785156 70.132812 118.769531 70.671875 116.742188 70.671875 Z M 116.746094 70.671875 "/></g><g clip-rule="nonzero" clip-path="url(#9bc8c50865)"><path style=" stroke:none;fill-rule:nonzero;fill:#304430;fill-opacity:1;" d="M 141.828125 76.847656 C 144.792969 76.847656 147.292969 75.988281 149.328125 74.269531 C 151.359375 72.550781 152.550781 70.082031 152.898438 66.859375 L 145.527344 66.414062 C 145.269531 69.316406 144.074219 70.765625 141.945312 70.765625 C 140.75 70.765625 139.824219 70.253906 139.164062 69.226562 C 138.5 68.199219 138.171875 66.253906 138.171875 63.390625 C 138.171875 58.285156 139.441406 55.730469 141.984375 55.730469 C 142.894531 55.730469 143.6875 56.121094 144.363281 56.90625 C 145.035156 57.6875 145.371094 58.957031 145.371094 60.71875 L 152.898438 60.3125 C 152.652344 57.128906 151.597656 54.574219 149.730469 52.652344 C 147.863281 50.726562 145.191406 49.765625 141.714844 49.765625 C 137.992188 49.765625 135.09375 51.027344 133.011719 53.554688 C 130.933594 56.082031 129.894531 59.410156 129.894531 63.527344 C 129.894531 67.644531 130.988281 70.945312 133.1875 73.308594 C 135.378906 75.667969 138.261719 76.847656 141.828125 76.847656 Z M 141.828125 76.847656 "/></g><path style=" stroke:none;fill-rule:nonzero;fill:#304430;fill-opacity:1;" d="M 161.363281 71.265625 L 168.402344 71.265625 L 169.886719 76.445312 L 178.117188 76.445312 L 169.875 50.167969 L 161.347656 50.167969 L 153.234375 76.445312 L 159.785156 76.445312 L 161.359375 71.265625 Z M 164.863281 57.90625 L 166.988281 65.53125 L 162.734375 65.53125 Z M 164.863281 57.90625 "/><path style=" stroke:none;fill-rule:nonzero;fill:#304430;fill-opacity:1;" d="M 187.085938 63.722656 C 187.085938 62.542969 186.871094 61.105469 186.449219 59.410156 C 187.386719 61.539062 188.316406 63.347656 189.242188 64.835938 L 196.4375 76.445312 L 203.003906 76.445312 L 203.003906 50.167969 L 196.4375 50.167969 L 196.4375 57.945312 C 196.4375 60.292969 196.644531 62.589844 197.054688 64.839844 C 196.425781 63.386719 195.503906 61.707031 194.285156 59.796875 L 188.160156 50.171875 L 180.539062 50.171875 L 180.539062 76.449219 L 187.082031 76.449219 L 187.082031 63.722656 Z M 187.085938 63.722656 "/><path style=" stroke:none;fill-rule:nonzero;fill:#304430;fill-opacity:1;" d="M 223.488281 57.65625 L 228.539062 76.445312 L 233.660156 76.445312 L 238.523438 57.65625 L 238.523438 76.445312 L 246.011719 76.445312 L 246.011719 50.167969 L 235.433594 50.167969 L 231.792969 64.125 L 227.980469 50.167969 L 217.441406 50.167969 L 217.441406 76.445312 L 223.488281 76.445312 Z M 223.488281 57.65625 "/><path style=" stroke:none;fill-rule:nonzero;fill:#304430;fill-opacity:1;" d="M 270.363281 70.171875 L 258.503906 70.171875 L 258.503906 65.878906 L 268.089844 65.878906 L 268.089844 60.042969 L 258.503906 60.042969 L 258.503906 56.234375 L 270.363281 56.234375 L 270.363281 50.167969 L 250.59375 50.167969 L 250.59375 76.445312 L 270.363281 76.445312 Z M 270.363281 70.171875 "/><g clip-rule="nonzero" clip-path="url(#370f6b5bdc)"><path style=" stroke:none;fill-rule:nonzero;fill:#ffffff;fill-opacity:1;" d="M 74.351562 84.050781 L 300.648438 84.050781 L 300.648438 310.34375 L 74.351562 310.34375 Z M 74.351562 84.050781 "/></g><path style="fill-rule:nonzero;fill:#ffffff;fill-opacity:1;stroke-width:1;stroke-linecap:butt;stroke-linejoin:miter;stroke:#c2a45f;stroke-opacity:1;stroke-miterlimit:4;" d="M 1.999741 2.500024 L 9.000082 2.500024 M 9.999806 2.500024 L 11.999822 2.500024 M 13.999838 2.500024 L 17.99987 2.500024 M 19.999886 2.500024 L 21.000179 2.500024 M 23.999918 2.500024 L 31.00026 2.500024 M 1.999741 3.499747 L 3.000034 3.499747 M 7.99979 3.499747 L 9.000082 3.499747 M 11.000099 3.499747 L 11.999822 3.499747 M 17.000147 3.499747 L 17.99987 3.499747 M 19.999886 3.499747 L 21.000179 3.499747 M 21.999902 3.499747 L 23.000195 3.499747 M 23.999918 3.499747 L 25.000211 3.499747 M 29.999967 3.499747 L 31.00026 3.499747 M 1.999741 4.50004 L 3.000034 4.50004 M 3.999757 4.50004 L 7.000066 4.50004 M 7.99979 4.50004 L 9.000082 4.50004 M 9.999806 4.50004 L 11.999822 4.50004 M 13.000115 4.50004 L 13.999838 4.50004 M 15.000131 4.50004 L 15.999854 4.50004 M 19.000163 4.50004 L 21.000179 4.50004 M 23.999918 4.50004 L 25.000211 4.50004 M 25.999935 4.50004 L 29.000243 4.50004 M 29.999967 4.50004 L 31.00026 4.50004 M 1.999741 5.499763 L 3.000034 5.499763 M 3.999757 5.499763 L 7.000066 5.499763 M 7.99979 5.499763 L 9.000082 5.499763 M 13.000115 5.499763 L 13.999838 5.499763 M 17.000147 5.499763 L 21.000179 5.499763 M 23.999918 5.499763 L 25.000211 5.499763 M 25.999935 5.499763 L 29.000243 5.499763 M 29.999967 5.499763 L 31.00026 5.499763 M 1.999741 6.500056 L 3.000034 6.500056 M 3.999757 6.500056 L 7.000066 6.500056 M 7.99979 6.500056 L 9.000082 6.500056 M 11.999822 6.500056 L 15.000131 6.500056 M 17.000147 6.500056 L 21.000179 6.500056 M 23.999918 6.500056 L 25.000211 6.500056 M 25.999935 6.500056 L 29.000243 6.500056 M 29.999967 6.500056 L 31.00026 6.500056 M 1.999741 7.499779 L 3.000034 7.499779 M 7.99979 7.499779 L 9.000082 7.499779 M 9.999806 7.499779 L 11.000099 7.499779 M 13.999838 7.499779 L 17.000147 7.499779 M 17.99987 7.499779 L 19.000163 7.499779 M 23.999918 7.499779 L 25.000211 7.499779 M 29.999967 7.499779 L 31.00026 7.499779 M 1.999741 8.500072 L 9.000082 8.500072 M 9.999806 8.500072 L 11.000099 8.500072 M 11.999822 8.500072 L 13.000115 8.500072 M 13.999838 8.500072 L 15.000131 8.500072 M 15.999854 8.500072 L 17.000147 8.500072 M 17.99987 8.500072 L 19.000163 8.500072 M 19.999886 8.500072 L 21.000179 8.500072 M 21.999902 8.500072 L 23.000195 8.500072 M 23.999918 8.500072 L 31.00026 8.500072 M 11.000099 9.499795 L 11.999822 9.499795 M 13.999838 9.499795 L 15.999854 9.499795 M 19.999886 9.499795 L 23.000195 9.499795 M 1.999741 10.500088 L 3.000034 10.500088 M 3.999757 10.500088 L 5.00005 10.500088 M 7.99979 10.500088 L 9.999806 10.500088 M 11.999822 10.500088 L 13.999838 10.500088 M 15.000131 10.500088 L 15.999854 10.500088 M 17.000147 10.500088 L 19.000163 10.500088 M 21.999902 10.500088 L 23.000195 10.500088 M 25.000211 10.500088 L 25.999935 10.500088 M 27.999951 10.500088 L 29.000243 10.500088 M 29.999967 10.500088 L 31.00026 10.500088 M 3.999757 11.499811 L 5.999774 11.499811 M 7.000066 11.499811 L 7.99979 11.499811 M 11.999822 11.499811 L 15.000131 11.499811 M 17.99987 11.499811 L 19.000163 11.499811 M 19.999886 11.499811 L 25.999935 11.499811 M 27.000227 11.499811 L 29.000243 11.499811 M 29.999967 11.499811 L 31.00026 11.499811 M 1.999741 12.500104 L 3.999757 12.500104 M 5.999774 12.500104 L 7.000066 12.500104 M 7.99979 12.500104 L 11.000099 12.500104 M 13.999838 12.500104 L 17.000147 12.500104 M 17.99987 12.500104 L 19.000163 12.500104 M 21.000179 12.500104 L 21.999902 12.500104 M 23.000195 12.500104 L 25.000211 12.500104 M 25.999935 12.500104 L 29.000243 12.500104 M 29.999967 12.500104 L 31.00026 12.500104 M 3.000034 13.499827 L 3.999757 13.499827 M 5.00005 13.499827 L 7.000066 13.499827 M 9.000082 13.499827 L 9.999806 13.499827 M 11.000099 13.499827 L 11.999822 13.499827 M 13.999838 13.499827 L 15.000131 13.499827 M 15.999854 13.499827 L 19.000163 13.499827 M 19.999886 13.499827 L 21.000179 13.499827 M 23.999918 13.499827 L 25.000211 13.499827 M 25.999935 13.499827 L 27.999951 13.499827 M 29.000243 13.499827 L 29.999967 13.499827 M 1.999741 14.50012 L 3.999757 14.50012 M 5.00005 14.50012 L 9.000082 14.50012 M 9.999806 14.50012 L 11.000099 14.50012 M 11.999822 14.50012 L 13.999838 14.50012 M 15.000131 14.50012 L 17.000147 14.50012 M 19.999886 14.50012 L 21.000179 14.50012 M 21.999902 14.50012 L 23.000195 14.50012 M 23.999918 14.50012 L 25.999935 14.50012 M 29.000243 14.50012 L 29.999967 14.50012 M 3.999757 15.499843 L 5.999774 15.499843 M 7.000066 15.499843 L 7.99979 15.499843 M 9.000082 15.499843 L 11.000099 15.499843 M 13.000115 15.499843 L 13.999838 15.499843 M 15.000131 15.499843 L 17.000147 15.499843 M 19.000163 15.499843 L 19.999886 15.499843 M 21.000179 15.499843 L 23.000195 15.499843 M 23.999918 15.499843 L 25.999935 15.499843 M 27.000227 15.499843 L 27.999951 15.499843 M 29.999967 15.499843 L 31.00026 15.499843 M 7.000066 16.500136 L 9.000082 16.500136 M 9.999806 16.500136 L 11.999822 16.500136 M 17.000147 16.500136 L 17.99987 16.500136 M 21.000179 16.500136 L 21.999902 16.500136 M 23.000195 16.500136 L 23.999918 16.500136 M 25.999935 16.500136 L 29.000243 16.500136 M 29.999967 16.500136 L 31.00026 16.500136 M 3.000034 17.49986 L 3.999757 17.49986 M 5.00005 17.49986 L 7.000066 17.49986 M 9.000082 17.49986 L 11.000099 17.49986 M 13.000115 17.49986 L 15.999854 17.49986 M 21.000179 17.49986 L 23.999918 17.49986 M 25.000211 17.49986 L 25.999935 17.49986 M 27.000227 17.49986 L 27.999951 17.49986 M 29.000243 17.49986 L 29.999967 17.49986 M 3.000034 18.500152 L 5.999774 18.500152 M 7.99979 18.500152 L 11.999822 18.500152 M 13.000115 18.500152 L 13.999838 18.500152 M 15.000131 18.500152 L 15.999854 18.500152 M 17.000147 18.500152 L 19.000163 18.500152 M 21.000179 18.500152 L 21.999902 18.500152 M 23.999918 18.500152 L 25.000211 18.500152 M 27.000227 18.500152 L 27.999951 18.500152 M 29.000243 18.500152 L 31.00026 18.500152 M 7.000066 19.499876 L 7.99979 19.499876 M 9.000082 19.499876 L 9.999806 19.499876 M 13.000115 19.499876 L 13.999838 19.499876 M 17.99987 19.499876 L 19.000163 19.499876 M 21.000179 19.499876 L 23.000195 19.499876 M 23.999918 19.499876 L 25.999935 19.499876 M 27.000227 19.499876 L 29.000243 19.499876 M 29.999967 19.499876 L 31.00026 19.499876 M 1.999741 20.500169 L 3.999757 20.500169 M 5.999774 20.500169 L 7.000066 20.500169 M 7.99979 20.500169 L 9.000082 20.500169 M 11.000099 20.500169 L 13.000115 20.500169 M 13.999838 20.500169 L 17.000147 20.500169 M 17.99987 20.500169 L 19.000163 20.500169 M 19.999886 20.500169 L 21.999902 20.500169 M 23.999918 20.500169 L 25.000211 20.500169 M 25.999935 20.500169 L 27.000227 20.500169 M 29.999967 20.500169 L 31.00026 20.500169 M 3.999757 21.499892 L 5.00005 21.499892 M 5.999774 21.499892 L 7.000066 21.499892 M 13.000115 21.499892 L 13.999838 21.499892 M 15.999854 21.499892 L 19.000163 21.499892 M 19.999886 21.499892 L 21.000179 21.499892 M 21.999902 21.499892 L 23.999918 21.499892 M 29.000243 21.499892 L 29.999967 21.499892 M 1.999741 22.500185 L 3.999757 22.500185 M 5.00005 22.500185 L 5.999774 22.500185 M 7.000066 22.500185 L 9.999806 22.500185 M 11.999822 22.500185 L 13.000115 22.500185 M 15.000131 22.500185 L 17.000147 22.500185 M 17.99987 22.500185 L 19.000163 22.500185 M 21.000179 22.500185 L 27.000227 22.500185 M 9.999806 23.499908 L 11.999822 23.499908 M 13.000115 23.499908 L 17.000147 23.499908 M 19.000163 23.499908 L 19.999886 23.499908 M 21.999902 23.499908 L 23.000195 23.499908 M 25.999935 23.499908 L 27.000227 23.499908 M 27.999951 23.499908 L 29.000243 23.499908 M 29.999967 23.499908 L 31.00026 23.499908 M 1.999741 24.500201 L 9.000082 24.500201 M 9.999806 24.500201 L 11.000099 24.500201 M 11.999822 24.500201 L 15.000131 24.500201 M 17.000147 24.500201 L 17.99987 24.500201 M 21.999902 24.500201 L 23.000195 24.500201 M 23.999918 24.500201 L 25.000211 24.500201 M 25.999935 24.500201 L 27.999951 24.500201 M 29.999967 24.500201 L 31.00026 24.500201 M 1.999741 25.499924 L 3.000034 25.499924 M 7.99979 25.499924 L 9.000082 25.499924 M 11.999822 25.499924 L 15.999854 25.499924 M 17.000147 25.499924 L 17.99987 25.499924 M 19.999886 25.499924 L 23.000195 25.499924 M 25.999935 25.499924 L 27.999951 25.499924 M 29.000243 25.499924 L 31.00026 25.499924 M 1.999741 26.500217 L 3.000034 26.500217 M 3.999757 26.500217 L 7.000066 26.500217 M 7.99979 26.500217 L 9.000082 26.500217 M 11.999822 26.500217 L 13.000115 26.500217 M 13.999838 26.500217 L 15.999854 26.500217 M 17.99987 26.500217 L 19.000163 26.500217 M 19.999886 26.500217 L 27.999951 26.500217 M 1.999741 27.49994 L 3.000034 27.49994 M 3.999757 27.49994 L 7.000066 27.49994 M 7.99979 27.49994 L 9.000082 27.49994 M 13.000115 27.49994 L 13.999838 27.49994 M 15.000131 27.49994 L 15.999854 27.49994 M 17.000147 27.49994 L 19.999886 27.49994 M 23.000195 27.49994 L 23.999918 27.49994 M 25.000211 27.49994 L 27.999951 27.49994 M 29.000243 27.49994 L 29.999967 27.49994 M 1.999741 28.500233 L 3.000034 28.500233 M 3.999757 28.500233 L 7.000066 28.500233 M 7.99979 28.500233 L 9.000082 28.500233 M 9.999806 28.500233 L 13.999838 28.500233 M 15.000131 28.500233 L 17.99987 28.500233 M 21.000179 28.500233 L 23.000195 28.500233 M 25.999935 28.500233 L 27.000227 28.500233 M 27.999951 28.500233 L 31.00026 28.500233 M 1.999741 29.499956 L 3.000034 29.499956 M 7.99979 29.499956 L 9.000082 29.499956 M 13.999838 29.499956 L 15.999854 29.499956 M 17.99987 29.499956 L 19.000163 29.499956 M 25.999935 29.499956 L 27.999951 29.499956 M 1.999741 30.500249 L 9.000082 30.500249 M 9.999806 30.500249 L 11.000099 30.500249 M 15.000131 30.500249 L 17.99987 30.500249 M 21.999902 30.500249 L 23.000195 30.500249 M 27.000227 30.500249 L 27.999951 30.500249 M 29.999967 30.500249 L 31.00026 30.500249 " transform="matrix(6.857367,0,0,6.857367,74.353447,84.051734)"/></g></svg>