<svg xmlns="http://www.w3.org/2000/svg" xmlns:xlink="http://www.w3.org/1999/xlink" width="500" zoomAndPan="magnify" viewBox="0 0 375 374.999991" height="500" preserveAspectRatio="xMidYMid meet" version="1.2"><defs><clipPath id="ab37d4cb76"><path d="M 53.714844 57 L 321 57 L 321 325.003906 L 53.714844 325.003906 Z M 53.714844 57 "/></clipPath><clipPath id="3698cdf7d9"><path d="M 104 49.753906 L 128 49.753906 L 128 77 L 104 77 Z M 104 49.753906 "/></clipPath><clipPath id="71c6a25578"><path d="M 129 49.753906 L 153 49.753906 L 153 77 L 129 77 Z M 129 49.753906 "/></clipPath><clipPath id="ac1d117f9b"><path d="M 74.351562 84.050781 L 300.648438 84.050781 L 300.648438 310.34375 L 74.351562 310.34375 Z M 74.351562 84.050781 "/></clipPath></defs><g id="1d46c19eb1"><g clip-rule="nonzero" clip-path="url(#ab37d4cb76)"><path style=" stroke:none;fill-rule:nonzero;fill:#304430;fill-opacity:1;" d="M 303.363281 57.839844 L 292.417969 57.839844 L 292.417969 64.707031 L 303.363281 64.707031 C 309.285156 64.707031 314.105469 69.523438 314.105469 75.445312 L 314.105469 307.410156 C 314.105469 313.332031 309.285156 318.152344 303.363281 318.152344 L 71.402344 318.152344 C 65.480469 318.152344 60.660156 313.332031 60.660156 307.410156 L 60.660156 75.445312 C 60.660156 69.523438 65.480469 64.703125 71.402344 64.703125 L 82.347656 64.703125 L 82.347656 57.839844 L 71.402344 57.839844 C 61.695312 57.839844 53.796875 65.734375 53.796875 75.445312 L 53.796875 307.40625 C 53.796875 317.113281 61.691406 325.015625 71.402344 325.015625 L 303.363281 325.015625 C 313.070312 325.015625 320.972656 317.117188 320.972656 307.40625 L 320.972656 75.445312 C 320.972656 65.738281 313.074219 57.839844 303.363281 57.839844 Z M 303.363281 57.839844 "/></g><g clip-rule="nonzero" clip-path="url(#3698cdf7d9)"><path style=" stroke:none;fill-rule:nonzero;fill:#304430;fill-opacity:1;" d="M 116.746094 70.671875 C 114.136719 70.671875 112.523438 69.613281 111.894531 67.496094 L 104.40625 68.84375 C 105.90625 74.179688 109.859375 76.851562 116.261719 76.851562 C 119.765625 76.851562 122.597656 76.027344 124.75 74.375 C 126.90625 72.726562 127.984375 70.570312 127.984375 67.910156 C 127.984375 66.230469 127.542969 64.769531 126.65625 63.53125 C 125.773438 62.289062 124.667969 61.414062 123.347656 60.902344 C 122.023438 60.390625 119.789062 59.800781 116.644531 59.136719 C 115.503906 58.894531 114.734375 58.640625 114.335938 58.371094 C 113.9375 58.101562 113.738281 57.722656 113.738281 57.234375 C 113.738281 56.144531 114.617188 55.597656 116.375 55.597656 C 118.492188 55.597656 119.898438 56.476562 120.589844 58.238281 L 127.269531 56.214844 C 125.550781 51.917969 122.015625 49.769531 116.664062 49.769531 C 113.136719 49.769531 110.429688 50.589844 108.550781 52.234375 C 106.667969 53.875 105.730469 55.9375 105.730469 58.414062 C 105.730469 60.339844 106.382812 62.015625 107.691406 63.4375 C 109 64.863281 111.960938 66.015625 116.570312 66.898438 C 117.773438 67.144531 118.613281 67.421875 119.082031 67.738281 C 119.550781 68.050781 119.785156 68.492188 119.785156 69.054688 C 119.785156 70.132812 118.769531 70.671875 116.742188 70.671875 Z M 116.746094 70.671875 "/></g><g clip-rule="nonzero" clip-path="url(#71c6a25578)"><path style=" stroke:none;fill-rule:nonzero;fill:#304430;fill-opacity:1;" d="M 141.828125 76.847656 C 144.792969 76.847656 147.292969 75.988281 149.328125 74.269531 C 151.359375 72.550781 152.550781 70.082031 152.898438 66.859375 L 145.527344 66.414062 C 145.269531 69.316406 144.074219 70.765625 141.945312 70.765625 C 140.75 70.765625 139.824219 70.253906 139.164062 69.226562 C 138.5 68.199219 138.171875 66.253906 138.171875 63.390625 C 138.171875 58.285156 139.441406 55.730469 141.984375 55.730469 C 142.894531 55.730469 143.6875 56.121094 144.363281 56.90625 C 145.035156 57.6875 145.371094 58.957031 145.371094 60.71875 L 152.898438 60.3125 C 152.652344 57.128906 151.597656 54.574219 149.730469 52.652344 C 147.863281 50.726562 145.191406 49.765625 141.714844 49.765625 C 137.992188 49.765625 135.09375 51.027344 133.011719 53.554688 C 130.933594 56.082031 129.894531 59.410156 129.894531 63.527344 C 129.894531 67.644531 130.988281 70.945312 133.1875 73.308594 C 135.378906 75.667969 138.261719 76.847656 141.828125 76.847656 Z M 141.828125 76.847656 "/></g><path style=" stroke:none;fill-rule:nonzero;fill:#304430;fill-opacity:1;" d="M 161.363281 71.265625 L 168.402344 71.265625 L 169.886719 76.445312 L 178.117188 76.445312 L 169.875 50.167969 L 161.347656 50.167969 L 153.234375 76.445312 L 159.785156 76.445312 L 161.359375 71.265625 Z M 164.863281 57.90625 L 166.988281 65.53125 L 162.734375 65.53125 Z M 164.863281 57.90625 "/><path style=" stroke:none;fill-rule:nonzero;fill:#304430;fill-opacity:1;" d="M 187.085938 63.722656 C 187.085938 62.542969 186.871094 61.105469 186.449219 59.410156 C 187.386719 61.539062 188.316406 63.347656 189.242188 64.835938 L 196.4375 76.445312 L 203.003906 76.445312 L 203.003906 50.167969 L 196.4375 50.167969 L 196.4375 57.945312 C 196.4375 60.292969 196.644531 62.589844 197.054688 64.839844 C 196.425781 63.386719 195.503906 61.707031 194.285156 59.796875 L 188.160156 50.171875 L 180.539062 50.171875 L 180.539062 76.449219 L 187.082031 76.449219 L 187.082031 63.722656 Z M 187.085938 63.722656 "/><path style=" stroke:none;fill-rule:nonzero;fill:#304430;fill-opacity:1;" d="M 223.488281 57.65625 L 228.539062 76.445312 L 233.660156 76.445312 L 238.523438 57.65625 L 238.523438 76.445312 L 246.011719 76.445312 L 246.011719 50.167969 L 235.433594 50.167969 L 231.792969 64.125 L 227.980469 50.167969 L 217.441406 50.167969 L 217.441406 76.445312 L 223.488281 76.445312 Z M 223.488281 57.65625 "/><path style=" stroke:none;fill-rule:nonzero;fill:#304430;fill-opacity:1;" d="M 270.363281 70.171875 L 258.503906 70.171875 L 258.503906 65.878906 L 268.089844 65.878906 L 268.089844 60.042969 L 258.503906 60.042969 L 258.503906 56.234375 L 270.363281 56.234375 L 270.363281 50.167969 L 250.59375 50.167969 L 250.59375 76.445312 L 270.363281 76.445312 Z M 270.363281 70.171875 "/><g clip-rule="nonzero" clip-path="url(#ac1d117f9b)"><path style=" stroke:none;fill-rule:nonzero;fill:#ffffff;fill-opacity:1;" d="M 74.351562 84.050781 L 300.648438 84.050781 L 300.648438 310.34375 L 74.351562 310.34375 Z M 74.351562 84.050781 "/></g><path style="fill-rule:nonzero;fill:#ffffff;fill-opacity:1;stroke-width:1;stroke-linecap:butt;stroke-linejoin:miter;stroke:#c2a45f;stroke-opacity:1;stroke-miterlimit:4;" d="M 1.999726 2.500266 L 8.999964 2.500266 M 11.000031 2.500266 L 12.000065 2.500266 M 13.000099 2.500266 L 14.000133 2.500266 M 15.000167 2.500266 L 18.000269 2.500266 M 19.000303 2.500266 L 20.000336 2.500266 M 22.99973 2.500266 L 23.999764 2.500266 M 32.000035 2.500266 L 39.000273 2.500266 M 1.999726 3.5003 L 2.99976 3.5003 M 7.99993 3.5003 L 8.999964 3.5003 M 11.000031 3.5003 L 13.000099 3.5003 M 16.000201 3.5003 L 19.000303 3.5003 M 20.000336 3.5003 L 20.999663 3.5003 M 21.999696 3.5003 L 23.999764 3.5003 M 24.999798 3.5003 L 31.000001 3.5003 M 32.000035 3.5003 L 33.000069 3.5003 M 38.000239 3.5003 L 39.000273 3.5003 M 1.999726 4.500334 L 2.99976 4.500334 M 3.999794 4.500334 L 6.999896 4.500334 M 7.99993 4.500334 L 8.999964 4.500334 M 9.999998 4.500334 L 11.000031 4.500334 M 12.000065 4.500334 L 14.000133 4.500334 M 16.000201 4.500334 L 18.000269 4.500334 M 20.000336 4.500334 L 20.999663 4.500334 M 22.99973 4.500334 L 25.999832 4.500334 M 27.9999 4.500334 L 28.999934 4.500334 M 29.999968 4.500334 L 31.000001 4.500334 M 32.000035 4.500334 L 33.000069 4.500334 M 34.000103 4.500334 L 37.000205 4.500334 M 38.000239 4.500334 L 39.000273 4.500334 M 1.999726 5.49966 L 2.99976 5.49966 M 3.999794 5.49966 L 6.999896 5.49966 M 7.99993 5.49966 L 8.999964 5.49966 M 9.999998 5.49966 L 11.000031 5.49966 M 13.000099 5.49966 L 20.000336 5.49966 M 23.999764 5.49966 L 29.999968 5.49966 M 32.000035 5.49966 L 33.000069 5.49966 M 34.000103 5.49966 L 37.000205 5.49966 M 38.000239 5.49966 L 39.000273 5.49966 M 1.999726 6.499694 L 2.99976 6.499694 M 3.999794 6.499694 L 6.999896 6.499694 M 7.99993 6.499694 L 8.999964 6.499694 M 9.999998 6.499694 L 11.000031 6.499694 M 15.000167 6.499694 L 17.000235 6.499694 M 19.000303 6.499694 L 20.999663 6.499694 M 21.999696 6.499694 L 25.999832 6.499694 M 26.999866 6.499694 L 27.9999 6.499694 M 29.999968 6.499694 L 31.000001 6.499694 M 32.000035 6.499694 L 33.000069 6.499694 M 34.000103 6.499694 L 37.000205 6.499694 M 38.000239 6.499694 L 39.000273 6.499694 M 1.999726 7.499728 L 2.99976 7.499728 M 7.99993 7.499728 L 8.999964 7.499728 M 9.999998 7.499728 L 11.000031 7.499728 M 14.000133 7.499728 L 17.000235 7.499728 M 19.000303 7.499728 L 20.000336 7.499728 M 21.999696 7.499728 L 23.999764 7.499728 M 28.999934 7.499728 L 31.000001 7.499728 M 32.000035 7.499728 L 33.000069 7.499728 M 38.000239 7.499728 L 39.000273 7.499728 M 1.999726 8.499762 L 8.999964 8.499762 M 9.999998 8.499762 L 11.000031 8.499762 M 12.000065 8.499762 L 13.000099 8.499762 M 14.000133 8.499762 L 15.000167 8.499762 M 16.000201 8.499762 L 17.000235 8.499762 M 18.000269 8.499762 L 19.000303 8.499762 M 20.000336 8.499762 L 20.999663 8.499762 M 21.999696 8.499762 L 22.99973 8.499762 M 23.999764 8.499762 L 24.999798 8.499762 M 25.999832 8.499762 L 26.999866 8.499762 M 27.9999 8.499762 L 28.999934 8.499762 M 29.999968 8.499762 L 31.000001 8.499762 M 32.000035 8.499762 L 39.000273 8.499762 M 9.999998 9.499796 L 14.000133 9.499796 M 17.000235 9.499796 L 21.999696 9.499796 M 22.99973 9.499796 L 24.999798 9.499796 M 29.999968 9.499796 L 31.000001 9.499796 M 1.999726 10.499829 L 2.99976 10.499829 M 3.999794 10.499829 L 8.999964 10.499829 M 11.000031 10.499829 L 12.000065 10.499829 M 14.000133 10.499829 L 17.000235 10.499829 M 18.000269 10.499829 L 19.000303 10.499829 M 20.999663 10.499829 L 21.999696 10.499829 M 22.99973 10.499829 L 23.999764 10.499829 M 24.999798 10.499829 L 25.999832 10.499829 M 32.000035 10.499829 L 37.000205 10.499829 M 2.99976 11.499863 L 7.99993 11.499863 M 8.999964 11.499863 L 9.999998 11.499863 M 11.000031 11.499863 L 12.000065 11.499863 M 13.000099 11.499863 L 15.000167 11.499863 M 16.000201 11.499863 L 18.000269 11.499863 M 20.000336 11.499863 L 20.999663 11.499863 M 21.999696 11.499863 L 24.999798 11.499863 M 25.999832 11.499863 L 27.9999 11.499863 M 28.999934 11.499863 L 31.000001 11.499863 M 33.000069 11.499863 L 34.000103 11.499863 M 35.000137 11.499863 L 36.000171 11.499863 M 37.000205 11.499863 L 38.000239 11.499863 M 1.999726 12.499897 L 2.99976 12.499897 M 4.999828 12.499897 L 8.999964 12.499897 M 9.999998 12.499897 L 13.000099 12.499897 M 14.000133 12.499897 L 16.000201 12.499897 M 17.000235 12.499897 L 19.000303 12.499897 M 20.000336 12.499897 L 21.999696 12.499897 M 22.99973 12.499897 L 23.999764 12.499897 M 27.9999 12.499897 L 29.999968 12.499897 M 31.000001 12.499897 L 35.000137 12.499897 M 37.000205 12.499897 L 39.000273 12.499897 M 3.999794 13.499931 L 5.999862 13.499931 M 6.999896 13.499931 L 7.99993 13.499931 M 12.000065 13.499931 L 14.000133 13.499931 M 15.000167 13.499931 L 18.000269 13.499931 M 20.999663 13.499931 L 23.999764 13.499931 M 25.999832 13.499931 L 26.999866 13.499931 M 28.999934 13.499931 L 29.999968 13.499931 M 31.000001 13.499931 L 32.000035 13.499931 M 33.000069 13.499931 L 35.000137 13.499931 M 38.000239 13.499931 L 39.000273 13.499931 M 1.999726 14.499965 L 2.99976 14.499965 M 3.999794 14.499965 L 4.999828 14.499965 M 7.99993 14.499965 L 9.999998 14.499965 M 12.000065 14.499965 L 14.000133 14.499965 M 16.000201 14.499965 L 20.000336 14.499965 M 20.999663 14.499965 L 21.999696 14.499965 M 23.999764 14.499965 L 24.999798 14.499965 M 25.999832 14.499965 L 29.999968 14.499965 M 31.000001 14.499965 L 35.000137 14.499965 M 36.000171 14.499965 L 39.000273 14.499965 M 1.999726 15.499999 L 2.99976 15.499999 M 4.999828 15.499999 L 5.999862 15.499999 M 6.999896 15.499999 L 7.99993 15.499999 M 8.999964 15.499999 L 9.999998 15.499999 M 12.000065 15.499999 L 15.000167 15.499999 M 17.000235 15.499999 L 19.000303 15.499999 M 20.000336 15.499999 L 21.999696 15.499999 M 23.999764 15.499999 L 25.999832 15.499999 M 26.999866 15.499999 L 27.9999 15.499999 M 29.999968 15.499999 L 32.000035 15.499999 M 33.000069 15.499999 L 34.000103 15.499999 M 3.999794 16.500033 L 8.999964 16.500033 M 9.999998 16.500033 L 13.000099 16.500033 M 14.000133 16.500033 L 19.000303 16.500033 M 20.000336 16.500033 L 20.999663 16.500033 M 21.999696 16.500033 L 22.99973 16.500033 M 23.999764 16.500033 L 24.999798 16.500033 M 28.999934 16.500033 L 32.000035 16.500033 M 33.000069 16.500033 L 36.000171 16.500033 M 37.000205 16.500033 L 39.000273 16.500033 M 3.999794 17.500067 L 4.999828 17.500067 M 6.999896 17.500067 L 7.99993 17.500067 M 14.000133 17.500067 L 15.000167 17.500067 M 20.999663 17.500067 L 21.999696 17.500067 M 24.999798 17.500067 L 25.999832 17.500067 M 27.9999 17.500067 L 28.999934 17.500067 M 29.999968 17.500067 L 31.000001 17.500067 M 33.000069 17.500067 L 35.000137 17.500067 M 37.000205 17.500067 L 39.000273 17.500067 M 1.999726 18.500101 L 2.99976 18.500101 M 4.999828 18.500101 L 5.999862 18.500101 M 6.999896 18.500101 L 12.000065 18.500101 M 15.000167 18.500101 L 17.000235 18.500101 M 20.000336 18.500101 L 20.999663 18.500101 M 21.999696 18.500101 L 27.9999 18.500101 M 31.000001 18.500101 L 33.000069 18.500101 M 34.000103 18.500101 L 35.000137 18.500101 M 36.000171 18.500101 L 39.000273 18.500101 M 1.999726 19.500134 L 3.999794 19.500134 M 4.999828 19.500134 L 7.99993 19.500134 M 8.999964 19.500134 L 9.999998 19.500134 M 12.000065 19.500134 L 13.000099 19.500134 M 14.000133 19.500134 L 15.000167 19.500134 M 17.000235 19.500134 L 20.000336 19.500134 M 22.99973 19.500134 L 23.999764 19.500134 M 27.9999 19.500134 L 28.999934 19.500134 M 33.000069 19.500134 L 34.000103 19.500134 M 35.000137 19.500134 L 36.000171 19.500134 M 37.000205 19.500134 L 38.000239 19.500134 M 2.99976 20.500168 L 5.999862 20.500168 M 7.99993 20.500168 L 9.999998 20.500168 M 11.000031 20.500168 L 12.000065 20.500168 M 13.000099 20.500168 L 15.000167 20.500168 M 19.000303 20.500168 L 20.000336 20.500168 M 21.999696 20.500168 L 22.99973 20.500168 M 24.999798 20.500168 L 26.999866 20.500168 M 27.9999 20.500168 L 29.999968 20.500168 M 31.000001 20.500168 L 33.000069 20.500168 M 35.000137 20.500168 L 39.000273 20.500168 M 1.999726 21.500202 L 2.99976 21.500202 M 5.999862 21.500202 L 7.99993 21.500202 M 9.999998 21.500202 L 11.000031 21.500202 M 18.000269 21.500202 L 19.000303 21.500202 M 20.000336 21.500202 L 20.999663 21.500202 M 22.99973 21.500202 L 25.999832 21.500202 M 27.9999 21.500202 L 32.000035 21.500202 M 33.000069 21.500202 L 35.000137 21.500202 M 38.000239 21.500202 L 39.000273 21.500202 M 2.99976 22.500236 L 3.999794 22.500236 M 6.999896 22.500236 L 8.999964 22.500236 M 9.999998 22.500236 L 12.000065 22.500236 M 13.000099 22.500236 L 15.000167 22.500236 M 19.000303 22.500236 L 20.000336 22.500236 M 21.999696 22.500236 L 22.99973 22.500236 M 24.999798 22.500236 L 27.9999 22.500236 M 31.000001 22.500236 L 33.000069 22.500236 M 34.000103 22.500236 L 37.000205 22.500236 M 5.999862 23.50027 L 6.999896 23.50027 M 8.999964 23.50027 L 12.000065 23.50027 M 13.000099 23.50027 L 14.000133 23.50027 M 15.000167 23.50027 L 17.000235 23.50027 M 19.000303 23.50027 L 21.999696 23.50027 M 22.99973 23.50027 L 27.9999 23.50027 M 29.999968 23.50027 L 32.000035 23.50027 M 35.000137 23.50027 L 36.000171 23.50027 M 37.000205 23.50027 L 38.000239 23.50027 M 6.999896 24.500304 L 9.999998 24.500304 M 11.000031 24.500304 L 14.000133 24.500304 M 17.000235 24.500304 L 18.000269 24.500304 M 19.000303 24.500304 L 20.000336 24.500304 M 21.999696 24.500304 L 23.999764 24.500304 M 27.9999 24.500304 L 36.000171 24.500304 M 37.000205 24.500304 L 39.000273 24.500304 M 1.999726 25.500338 L 3.999794 25.500338 M 4.999828 25.500338 L 5.999862 25.500338 M 6.999896 25.500338 L 7.99993 25.500338 M 9.999998 25.500338 L 12.000065 25.500338 M 14.000133 25.500338 L 15.000167 25.500338 M 16.000201 25.500338 L 17.000235 25.500338 M 19.000303 25.500338 L 20.999663 25.500338 M 22.99973 25.500338 L 24.999798 25.500338 M 29.999968 25.500338 L 31.000001 25.500338 M 32.000035 25.500338 L 35.000137 25.500338 M 37.000205 25.500338 L 39.000273 25.500338 M 2.99976 26.499664 L 3.999794 26.499664 M 7.99993 26.499664 L 9.999998 26.499664 M 11.000031 26.499664 L 12.000065 26.499664 M 14.000133 26.499664 L 15.000167 26.499664 M 16.000201 26.499664 L 19.000303 26.499664 M 22.99973 26.499664 L 23.999764 26.499664 M 24.999798 26.499664 L 27.9999 26.499664 M 28.999934 26.499664 L 29.999968 26.499664 M 31.000001 26.499664 L 33.000069 26.499664 M 36.000171 26.499664 L 37.000205 26.499664 M 38.000239 26.499664 L 39.000273 26.499664 M 1.999726 27.499698 L 2.99976 27.499698 M 5.999862 27.499698 L 7.99993 27.499698 M 9.999998 27.499698 L 11.000031 27.499698 M 12.000065 27.499698 L 13.000099 27.499698 M 16.000201 27.499698 L 18.000269 27.499698 M 19.000303 27.499698 L 20.999663 27.499698 M 21.999696 27.499698 L 22.99973 27.499698 M 23.999764 27.499698 L 24.999798 27.499698 M 25.999832 27.499698 L 27.9999 27.499698 M 33.000069 27.499698 L 34.000103 27.499698 M 1.999726 28.499732 L 2.99976 28.499732 M 3.999794 28.499732 L 4.999828 28.499732 M 5.999862 28.499732 L 6.999896 28.499732 M 7.99993 28.499732 L 8.999964 28.499732 M 9.999998 28.499732 L 11.000031 28.499732 M 13.000099 28.499732 L 15.000167 28.499732 M 17.000235 28.499732 L 20.000336 28.499732 M 20.999663 28.499732 L 21.999696 28.499732 M 23.999764 28.499732 L 24.999798 28.499732 M 25.999832 28.499732 L 29.999968 28.499732 M 31.000001 28.499732 L 35.000137 28.499732 M 37.000205 28.499732 L 39.000273 28.499732 M 1.999726 29.499766 L 2.99976 29.499766 M 3.999794 29.499766 L 4.999828 29.499766 M 8.999964 29.499766 L 9.999998 29.499766 M 11.000031 29.499766 L 12.000065 29.499766 M 15.000167 29.499766 L 18.000269 29.499766 M 20.999663 29.499766 L 24.999798 29.499766 M 25.999832 29.499766 L 26.999866 29.499766 M 29.999968 29.499766 L 32.000035 29.499766 M 34.000103 29.499766 L 36.000171 29.499766 M 38.000239 29.499766 L 39.000273 29.499766 M 1.999726 30.499799 L 2.99976 30.499799 M 5.999862 30.499799 L 8.999964 30.499799 M 13.000099 30.499799 L 15.000167 30.499799 M 16.000201 30.499799 L 20.000336 30.499799 M 20.999663 30.499799 L 22.99973 30.499799 M 23.999764 30.499799 L 24.999798 30.499799 M 25.999832 30.499799 L 28.999934 30.499799 M 29.999968 30.499799 L 37.000205 30.499799 M 9.999998 31.499833 L 11.000031 31.499833 M 12.000065 31.499833 L 13.000099 31.499833 M 14.000133 31.499833 L 16.000201 31.499833 M 18.000269 31.499833 L 19.000303 31.499833 M 20.999663 31.499833 L 21.999696 31.499833 M 23.999764 31.499833 L 25.999832 31.499833 M 28.999934 31.499833 L 31.000001 31.499833 M 34.000103 31.499833 L 36.000171 31.499833 M 37.000205 31.499833 L 38.000239 31.499833 M 1.999726 32.499867 L 8.999964 32.499867 M 11.000031 32.499867 L 12.000065 32.499867 M 13.000099 32.499867 L 16.000201 32.499867 M 17.000235 32.499867 L 19.000303 32.499867 M 20.000336 32.499867 L 20.999663 32.499867 M 21.999696 32.499867 L 22.99973 32.499867 M 23.999764 32.499867 L 24.999798 32.499867 M 27.9999 32.499867 L 28.999934 32.499867 M 29.999968 32.499867 L 31.000001 32.499867 M 32.000035 32.499867 L 33.000069 32.499867 M 34.000103 32.499867 L 35.000137 32.499867 M 36.000171 32.499867 L 39.000273 32.499867 M 1.999726 33.499901 L 2.99976 33.499901 M 7.99993 33.499901 L 8.999964 33.499901 M 9.999998 33.499901 L 12.000065 33.499901 M 13.000099 33.499901 L 15.000167 33.499901 M 17.000235 33.499901 L 19.000303 33.499901 M 21.999696 33.499901 L 22.99973 33.499901 M 24.999798 33.499901 L 25.999832 33.499901 M 26.999866 33.499901 L 28.999934 33.499901 M 29.999968 33.499901 L 31.000001 33.499901 M 34.000103 33.499901 L 36.000171 33.499901 M 37.000205 33.499901 L 38.000239 33.499901 M 1.999726 34.499935 L 2.99976 34.499935 M 3.999794 34.499935 L 6.999896 34.499935 M 7.99993 34.499935 L 8.999964 34.499935 M 9.999998 34.499935 L 13.000099 34.499935 M 14.000133 34.499935 L 15.000167 34.499935 M 16.000201 34.499935 L 18.000269 34.499935 M 20.000336 34.499935 L 26.999866 34.499935 M 28.999934 34.499935 L 35.000137 34.499935 M 36.000171 34.499935 L 37.000205 34.499935 M 38.000239 34.499935 L 39.000273 34.499935 M 1.999726 35.499969 L 2.99976 35.499969 M 3.999794 35.499969 L 6.999896 35.499969 M 7.99993 35.499969 L 8.999964 35.499969 M 9.999998 35.499969 L 11.000031 35.499969 M 13.000099 35.499969 L 14.000133 35.499969 M 16.000201 35.499969 L 19.000303 35.499969 M 22.99973 35.499969 L 23.999764 35.499969 M 25.999832 35.499969 L 26.999866 35.499969 M 28.999934 35.499969 L 31.000001 35.499969 M 32.000035 35.499969 L 33.000069 35.499969 M 34.000103 35.499969 L 35.000137 35.499969 M 36.000171 35.499969 L 38.000239 35.499969 M 1.999726 36.500003 L 2.99976 36.500003 M 3.999794 36.500003 L 6.999896 36.500003 M 7.99993 36.500003 L 8.999964 36.500003 M 9.999998 36.500003 L 11.000031 36.500003 M 12.000065 36.500003 L 13.000099 36.500003 M 19.000303 36.500003 L 20.000336 36.500003 M 21.999696 36.500003 L 23.999764 36.500003 M 25.999832 36.500003 L 27.9999 36.500003 M 29.999968 36.500003 L 31.000001 36.500003 M 35.000137 36.500003 L 36.000171 36.500003 M 38.000239 36.500003 L 39.000273 36.500003 M 1.999726 37.500037 L 2.99976 37.500037 M 7.99993 37.500037 L 8.999964 37.500037 M 11.000031 37.500037 L 12.000065 37.500037 M 13.000099 37.500037 L 15.000167 37.500037 M 18.000269 37.500037 L 19.000303 37.500037 M 20.000336 37.500037 L 20.999663 37.500037 M 22.99973 37.500037 L 26.999866 37.500037 M 27.9999 37.500037 L 32.000035 37.500037 M 34.000103 37.500037 L 36.000171 37.500037 M 38.000239 37.500037 L 39.000273 37.500037 M 1.999726 38.500071 L 8.999964 38.500071 M 9.999998 38.500071 L 11.000031 38.500071 M 14.000133 38.500071 L 17.000235 38.500071 M 19.000303 38.500071 L 20.000336 38.500071 M 21.999696 38.500071 L 22.99973 38.500071 M 24.999798 38.500071 L 28.999934 38.500071 M 31.000001 38.500071 L 32.000035 38.500071 M 34.000103 38.500071 L 39.000273 38.500071 " transform="matrix(5.519344,0,0,5.519344,74.353447,84.051734)"/></g></svg>