<svg xmlns="http://www.w3.org/2000/svg" xmlns:xlink="http://www.w3.org/1999/xlink" width="50" zoomAndPan="magnify" viewBox="0 0 37.5 37.499999" height="50" preserveAspectRatio="xMidYMid meet" version="1.2"><defs><clipPath id="81b8554e54"><path d="M 1.738281 1.6875 L 35.042969 1.6875 L 35.042969 34.992188 L 1.738281 34.992188 Z M 1.738281 1.6875 "/></clipPath></defs><g id="0b55b7cd33"><g clip-rule="nonzero" clip-path="url(#81b8554e54)"><path style=" stroke:none;fill-rule:nonzero;fill:#000000;fill-opacity:1;" d="M 35.042969 18.335938 C 35.042969 18.878906 35.015625 19.421875 34.960938 19.964844 C 34.910156 20.503906 34.828125 21.042969 34.722656 21.578125 C 34.617188 22.109375 34.484375 22.636719 34.324219 23.15625 C 34.167969 23.679688 33.984375 24.191406 33.773438 24.691406 C 33.566406 25.195312 33.332031 25.6875 33.078125 26.164062 C 32.820312 26.644531 32.539062 27.113281 32.238281 27.5625 C 31.933594 28.015625 31.609375 28.453125 31.261719 28.875 C 30.917969 29.292969 30.550781 29.695312 30.164062 30.082031 C 29.78125 30.464844 29.375 30.832031 28.953125 31.175781 C 28.53125 31.519531 28.09375 31.84375 27.640625 32.144531 C 27.1875 32.449219 26.722656 32.726562 26.242188 32.984375 C 25.757812 33.242188 25.265625 33.472656 24.761719 33.679688 C 24.257812 33.890625 23.746094 34.074219 23.222656 34.230469 C 22.703125 34.386719 22.175781 34.519531 21.640625 34.625 C 21.105469 34.734375 20.566406 34.8125 20.023438 34.867188 C 19.480469 34.917969 18.9375 34.945312 18.390625 34.945312 C 17.84375 34.945312 17.300781 34.917969 16.757812 34.867188 C 16.214844 34.8125 15.675781 34.734375 15.140625 34.625 C 14.605469 34.519531 14.078125 34.386719 13.554688 34.230469 C 13.035156 34.074219 12.523438 33.890625 12.015625 33.679688 C 11.515625 33.472656 11.019531 33.242188 10.539062 32.984375 C 10.058594 32.726562 9.59375 32.449219 9.136719 32.144531 C 8.683594 31.84375 8.246094 31.519531 7.824219 31.175781 C 7.40625 30.832031 7 30.464844 6.613281 30.082031 C 6.230469 29.695312 5.863281 29.292969 5.515625 28.875 C 5.171875 28.453125 4.847656 28.015625 4.542969 27.5625 C 4.242188 27.113281 3.960938 26.644531 3.703125 26.164062 C 3.445312 25.6875 3.214844 25.195312 3.003906 24.691406 C 2.796875 24.191406 2.613281 23.679688 2.453125 23.15625 C 2.296875 22.636719 2.164062 22.109375 2.058594 21.578125 C 1.953125 21.042969 1.871094 20.503906 1.816406 19.964844 C 1.765625 19.421875 1.738281 18.878906 1.738281 18.335938 C 1.738281 17.792969 1.765625 17.25 1.816406 16.707031 C 1.871094 16.167969 1.953125 15.628906 2.058594 15.097656 C 2.164062 14.5625 2.296875 14.035156 2.453125 13.515625 C 2.613281 12.992188 2.796875 12.484375 3.003906 11.980469 C 3.214844 11.476562 3.445312 10.984375 3.703125 10.507812 C 3.960938 10.027344 4.242188 9.5625 4.542969 9.109375 C 4.847656 8.65625 5.171875 8.21875 5.515625 7.800781 C 5.863281 7.378906 6.230469 6.976562 6.613281 6.589844 C 7 6.207031 7.40625 5.84375 7.824219 5.496094 C 8.246094 5.152344 8.683594 4.828125 9.136719 4.527344 C 9.59375 4.222656 10.058594 3.945312 10.539062 3.6875 C 11.019531 3.433594 11.515625 3.199219 12.015625 2.992188 C 12.519531 2.78125 13.035156 2.601562 13.554688 2.441406 C 14.078125 2.285156 14.605469 2.152344 15.140625 2.046875 C 15.675781 1.941406 16.214844 1.859375 16.757812 1.808594 C 17.300781 1.753906 17.84375 1.726562 18.390625 1.726562 C 18.9375 1.726562 19.480469 1.753906 20.023438 1.808594 C 20.566406 1.859375 21.105469 1.941406 21.640625 2.046875 C 22.175781 2.152344 22.703125 2.285156 23.222656 2.441406 C 23.746094 2.601562 24.257812 2.78125 24.761719 2.992188 C 25.265625 3.199219 25.757812 3.433594 26.242188 3.6875 C 26.722656 3.945312 27.1875 4.222656 27.640625 4.527344 C 28.09375 4.828125 28.53125 5.152344 28.953125 5.496094 C 29.375 5.84375 29.78125 6.207031 30.164062 6.589844 C 30.550781 6.976562 30.917969 7.378906 31.261719 7.800781 C 31.609375 8.21875 31.933594 8.65625 32.238281 9.109375 C 32.539062 9.5625 32.820312 10.027344 33.078125 10.507812 C 33.332031 10.984375 33.566406 11.476562 33.773438 11.980469 C 33.984375 12.484375 34.167969 12.992188 34.324219 13.515625 C 34.484375 14.035156 34.617188 14.5625 34.722656 15.097656 C 34.828125 15.628906 34.910156 16.167969 34.960938 16.707031 C 35.015625 17.25 35.042969 17.792969 35.042969 18.335938 Z M 35.042969 18.335938 "/></g><path style="fill-rule:evenodd;fill:#ffffff;fill-opacity:1;stroke-width:2.14;stroke-linecap:round;stroke-linejoin:round;stroke:#ffffff;stroke-opacity:1;stroke-miterlimit:1.5;" d="M 30640.409728 9422.357213 L 30685.686658 9422.041539 L 30795.712351 9582.12735 L 30750.002714 9581.732758 Z M 30640.409728 9422.357213 " transform="matrix(0.0993021,0,0,0.0989948,-3031.980945,-922.513982)"/><path style="fill-rule:evenodd;fill:#ffffff;fill-opacity:1;stroke-width:2.14;stroke-linecap:round;stroke-linejoin:round;stroke:#ffffff;stroke-opacity:1;stroke-miterlimit:1.5;" d="M 30776.791236 9422.041539 L 30790.913232 9422.041539 L 30653.981006 9582.12735 L 30640.409728 9582.12735 Z M 30776.791236 9422.041539 " transform="matrix(0.0993021,0,0,0.0989948,-3031.980945,-922.513982)"/><path style=" stroke:none;fill-rule:evenodd;fill:#000000;fill-opacity:1;" d="M 12.53125 11.449219 L 14.617188 11.460938 L 24.257812 25.222656 L 22.171875 25.222656 Z M 12.53125 11.449219 "/><path style=" stroke:none;fill-rule:evenodd;fill:#000000;fill-opacity:1;" d="M 12.53125 11.449219 L 14.617188 11.460938 L 24.257812 25.222656 L 22.171875 25.222656 Z M 12.691406 11.53125 C 12.691406 11.53125 22.214844 25.136719 22.214844 25.136719 C 22.214844 25.136719 24.101562 25.140625 24.101562 25.140625 L 14.566406 11.542969 Z M 12.691406 11.53125 "/></g></svg>